<?xml version="1.0" encoding="iso-8859-1"?>
<!-- Uploaded to: SVG Repo, www.svgrepo.com, Generator: SVG Repo Mixer Tools -->
<!DOCTYPE svg PUBLIC "-//W3C//DTD SVG 1.1//EN" "http://www.w3.org/Graphics/SVG/1.1/DTD/svg11.dtd">
<svg fill="#000000" version="1.1" id="Capa_1" xmlns="http://www.w3.org/2000/svg" xmlns:xlink="http://www.w3.org/1999/xlink" 
	 width="800px" height="800px" viewBox="0 0 47.625 47.626"
	 xml:space="preserve">
<g>
	<g>
		<polygon points="21.251,19.87 21.113,19.783 21.031,19.87 21.141,19.959 		"/>
		<path d="M20.55,20.108l0.17-0.032l0.135-0.086v-0.18H20.55C20.55,19.84,20.55,20.108,20.55,20.108z"/>
		<polygon points="19.725,19.108 19.798,18.822 19.584,18.772 19.348,18.884 19.495,19.181 		"/>
		<polygon points="20.704,19.526 20.704,19.739 20.891,19.694 		"/>
		<polygon points="20.605,19.739 20.605,19.554 20.527,19.554 20.527,19.448 20.171,19.448 19.913,19.554 19.861,19.684 
			20.064,19.739 		"/>
		<polygon points="20.37,19.811 20.07,19.811 19.861,20.035 19.827,20.258 19.984,20.342 		"/>
		<polygon points="21.296,20.281 21.296,20.108 20.952,20.007 20.93,20.007 20.93,20.168 21.009,20.281 		"/>
		<polygon points="20.55,20.264 20.415,20.275 20.37,20.47 20.659,20.47 20.79,20.342 20.79,20.168 20.579,20.197 		"/>
		<path d="M47.625,22.25c-0.01-3.135-1.938-5.952-5.09-7.509c0.439-3.35-0.752-6.441-3.211-8.205
			c-2.23-1.601-5.322-1.852-8.145-0.696C29.741,2.304,26.692,0,23.305,0c-3.605,0-6.813,2.62-8.117,6.5
			c-1.139-0.409-2.32-0.623-3.471-0.623c-2.295,0-4.371,0.844-5.848,2.377c-1.955,2.03-2.623,4.975-1.852,7.998
			C1.479,17.908-0.006,20.456,0,23.2c0.008,3.015,1.813,5.76,4.771,7.349c-1.131,3.342-0.486,6.795,1.744,9.004
			c1.459,1.442,3.473,2.237,5.676,2.237c1.26,0,2.547-0.257,3.781-0.749c1.283,3.934,4.496,6.585,8.146,6.585
			c3.313,0,6.271-2.151,7.76-5.563c0.998,0.313,2.011,0.471,3.019,0.471c2.295,0,4.369-0.844,5.844-2.377
			c2.451-2.543,2.85-6.461,1.117-10.038C45.364,28.66,47.634,25.619,47.625,22.25z M40.134,28.609l-1.26,0.371l0.691,1.115
			c1.895,3.057,1.789,6.541-0.267,8.674c-1.094,1.137-2.655,1.764-4.401,1.764c-1.056,0-2.166-0.23-3.213-0.668l-0.991-0.412
			l-0.342,1.02c-1.047,3.131-3.492,5.153-6.23,5.153c-3.057,0-5.734-2.549-6.512-6.198l-0.275-1.298l-1.172,0.623
			c-1.275,0.679-2.646,1.037-3.969,1.037c-1.695,0-3.172-0.574-4.268-1.66c-1.84-1.819-2.221-4.834-0.971-7.678l0.404-0.923
			l-0.926-0.398C3.706,27.96,2.006,25.686,2,23.193c-0.006-2.242,1.367-4.338,3.676-5.606l0.732-0.402l-0.266-0.792
			c-0.865-2.571-0.43-5.095,1.166-6.752c1.096-1.138,2.66-1.764,4.406-1.764c1.223,0,2.498,0.306,3.691,0.883l1.133,0.55
			l0.277-1.229C17.628,4.501,20.294,2,23.301,2c2.828,0,5.375,2.211,6.339,5.5l0.348,1.19l1.09-0.592
			c2.41-1.313,5.18-1.3,7.08,0.063c2,1.435,2.873,4.106,2.281,6.973l-0.168,0.813l0.77,0.314c2.818,1.151,4.574,3.448,4.582,5.994
			C45.634,25.086,43.425,27.641,40.134,28.609z"/>
		<path d="M23.814,14.022c-5.447,0-9.875,4.43-9.875,9.875s4.428,9.875,9.875,9.875c5.443,0,9.874-4.431,9.874-9.875
			S29.257,14.022,23.814,14.022z M30.067,20.168l0.473,0.261l0.08,0.086l-0.102,0.051l0.004,0.274l-0.229,0.094l-0.194-0.042
			l-0.125-0.173l0.319,0.018l0.086-0.115l-0.707-0.472l-0.055-0.201l-0.287,0.257l-0.293-0.06l-0.443,0.57l-0.088,0.224
			l-0.282,0.026l-0.421,0.002l-0.25-0.116l-0.073-0.493l0.09-0.234l0.428-0.093l0.465,0.093l0.058-0.254l-0.197-0.048l0.068-0.397
			l0.469-0.07l0.328-0.459l0.338-0.056l0.305,0.044h0.053c0.339,0.407,0.633,0.85,0.884,1.32l-0.306-0.257l-0.125-0.124h-0.393
			L30.067,20.168z M29.594,18.568l-0.085,0.034l-0.094-0.23C29.478,18.435,29.535,18.503,29.594,18.568z M29.315,18.272
			l-0.152-0.021l-0.023-0.14C29.197,18.166,29.256,18.216,29.315,18.272z M18.582,18.029l0.015,0.017l0.447-0.027
			c0,0,0.016-0.195,0-0.195c-0.018,0-0.215,0.033-0.215,0.033l-0.083,0.023c0.263-0.222,0.543-0.424,0.834-0.611l0.007,0.037
			l0.611,0.021l-0.084-0.192l-0.3-0.009c0.206-0.122,0.418-0.234,0.635-0.338l0.003,0.004l0.4,0.022l0.242-0.231l0.182,0.089
			l-0.332,0.32c0,0-0.459,0.008-0.438,0.008s0.037,0.313,0.037,0.313l0.557-0.015l0.061-0.149l0.385-0.022l0.045-0.224l-0.227-0.037
			l0.076-0.201l0.172-0.052l0.604,0.029l-0.33,0.298l0.053,0.231l0.348,0.052l-0.025-0.416l0.334-0.172l0.586-0.067l0.852,0.372
			v0.322l0.271,0.065l-0.138,0.253h-0.384l-0.115,0.291l-0.877-0.205l0.689-0.363l-0.262-0.221l-0.596,0.074l-0.053,0.054
			l-0.002-0.001l-0.01,0.013l-0.172,0.175l-0.283,0.024l0.023,0.14l0.1,0.04l-0.004,0.047l-0.23,0.032l-0.016,0.132l-0.221,0.012
			l-0.041-0.263l-0.396,0.119l-0.807,0.468l0.09,0.328l0.225,0.146l0.453,0.062v0.508l0.209-0.033l0.193-0.396l0.48-0.15v-0.609
			l0.266-0.199l0.646,0.15l-0.045,0.402h0.174l0.475-0.23l0.023,0.528l0.346,0.208l-0.016,0.313l-0.33,0.112l0.021,0.104l0.4,0.18
			l-0.008,0.216l-0.117,0.01c0-0.003,0-0.006,0-0.006l-0.504-0.153l-0.021-0.16l0.146-0.099v-0.146l-0.158-0.039l-0.039,0.135
			l-0.279,0.042l-0.027-0.009v0.013l-0.096,0.015l-0.078-0.156l-0.09-0.039H22.65l-0.09,0.072v0.161l0.17,0.056l0.166,0.025
			l-0.037,0.015l-0.152,0.168l-0.066-0.084l-0.148-0.039l-0.4,0.374l0.051,0.043l-0.592,0.324l-0.559,0.573l-0.037,0.255
			l-0.559,0.364l-0.277,0.274l0.031,0.552l-0.385-0.178l0.002-0.322h-1.07l-0.553,0.277l-0.24,0.438l-0.096,0.347l0.156,0.337
			l0.436,0.053l0.695-0.458l0.059,0.228l-0.211,0.396l0.529,0.088l0.051,0.806l0.068,0.011l0.006,0.002l0.65,0.109l0.459-0.525
			l0.559,0.111l0.193,0.271l0.537-0.031l0.014-0.156l0.295,0.141l0.33,0.515l0.572,0.007l0.213,0.366l0.029,0.446l0.633,0.238
			l0.801,0.008l0.232,0.379l0.354,0.111l-0.067,0.312l-0.388,0.484l-0.111,1.078l-0.353,0.273l-0.52-0.016l-0.174,0.297l0.129,0.559
			l-0.564,0.717l-0.182,0.326l-0.539,0.256l-0.354,0.055l-0.016,0.147l0.25,0.069l-0.031,0.162l-0.223,0.211l0.135,0.168l0.27,0.008
			l-0.016,0.205l-0.01,0.027c-0.4-0.057-0.793-0.137-1.171-0.252l-0.063-0.109l0.059-0.701l-0.318-0.416l0.129-0.708l-0.188-0.054
			V27.91c0,0-0.527-0.395-0.557-0.395c-0.033,0-0.279-0.066-0.279-0.066l-0.055-0.291l-0.686-0.85l0.068-0.306l0.023-0.498
			l0.473-0.327l-0.066-0.561l-0.693-0.051l-0.543-0.611l-0.385-0.104l-0.248-0.045l0.029-0.225l-0.316-0.044v0.127l-0.789-0.192
			l-0.32-0.483l0.111-0.198l-0.131-0.001l-0.039-0.126l0.094-0.046l-0.404-0.584l-0.088-0.529h-0.041
			C16.747,20.149,17.542,18.956,18.582,18.029z M16.218,22.02l0.346,0.528l-0.037,0.209l-0.293-0.045l-0.156-0.262
			c0.034-0.184,0.079-0.364,0.126-0.543L16.218,22.02z M30.227,28.45v-0.361l-0.267-0.26l-0.021-0.3l0.334-0.633l-0.637-1.108
			l0.075-0.753l-0.571-0.059l-0.211-0.209h-0.388l-0.194,0.18h-0.677l-0.022,0.059h-0.377l-0.865-0.975l0.006-0.762l0.144-0.051
			l0.055-0.291h-0.203l-0.084-0.306l1.002-0.715v-0.506l0.49-0.271l0.199,0.021h0.401l0.316-0.169l1.018-0.078v0.515l0.804,0.201
			l0.157,0.112h0.146v-0.279l0.423-0.041c0.261,0.782,0.407,1.615,0.407,2.482C31.688,25.594,31.143,27.163,30.227,28.45z
			 M30.8,20.28c0.1,0.19,0.193,0.383,0.277,0.582l-0.266-0.279L30.8,20.28z"/>
	</g>
</g>
</svg>